<svg width="20" height="10" viewBox="0 0 20 10" fill="none" xmlns="http://www.w3.org/2000/svg">
<path d="M4.74414 9H2.76367V2.69531L0.818359 3.26367V1.76367L4.5625 0.46875H4.74414V9ZM9.12109 3.9082H10.0527C10.791 3.9082 11.1602 3.54688 11.1602 2.82422C11.1602 2.54297 11.0723 2.31445 10.8965 2.13867C10.7207 1.95898 10.4727 1.86914 10.1523 1.86914C9.89062 1.86914 9.66211 1.94531 9.4668 2.09766C9.27539 2.25 9.17969 2.43945 9.17969 2.66602H7.20508C7.20508 2.2168 7.33008 1.81641 7.58008 1.46484C7.83008 1.11328 8.17578 0.839844 8.61719 0.644531C9.0625 0.445312 9.55078 0.345703 10.082 0.345703C11.0312 0.345703 11.7773 0.5625 12.3203 0.996094C12.8633 1.42969 13.1348 2.02539 13.1348 2.7832C13.1348 3.15039 13.0215 3.49805 12.7949 3.82617C12.5723 4.15039 12.2461 4.41406 11.8164 4.61719C12.2695 4.78125 12.625 5.03125 12.8828 5.36719C13.1406 5.69922 13.2695 6.11133 13.2695 6.60352C13.2695 7.36523 12.9766 7.97461 12.3906 8.43164C11.8047 8.88867 11.0352 9.11719 10.082 9.11719C9.52344 9.11719 9.00391 9.01172 8.52344 8.80078C8.04688 8.58594 7.68555 8.29102 7.43945 7.91602C7.19336 7.53711 7.07031 7.10742 7.07031 6.62695H9.05664C9.05664 6.88867 9.16211 7.11523 9.37305 7.30664C9.58398 7.49805 9.84375 7.59375 10.1523 7.59375C10.5 7.59375 10.7773 7.49805 10.9844 7.30664C11.1914 7.11133 11.2949 6.86328 11.2949 6.5625C11.2949 6.13281 11.1875 5.82812 10.9727 5.64844C10.7578 5.46875 10.4609 5.37891 10.082 5.37891H9.12109V3.9082ZM17.8574 4.16016H19.8555V5.85352H17.8574V8.14453H16.0117V5.85352H14.0078V4.16016H16.0117V1.93359H17.8574V4.16016Z" fill="white"/>
</svg>
