<svg width="86" height="12" viewBox="0 0 86 12" fill="none" xmlns="http://www.w3.org/2000/svg">
<path d="M4.71484 11H2.4043V3.64453L0.134766 4.30762V2.55762L4.50293 1.04688H4.71484V11ZM14.6611 11H7.71582V9.49609L10.915 6.13281C11.7035 5.23503 12.0977 4.52181 12.0977 3.99316C12.0977 3.56478 12.0042 3.23893 11.8174 3.01562C11.6305 2.79232 11.3594 2.68066 11.0039 2.68066C10.653 2.68066 10.3682 2.83105 10.1494 3.13184C9.93066 3.42806 9.82129 3.79948 9.82129 4.24609H7.51074C7.51074 3.63542 7.66341 3.07259 7.96875 2.55762C8.27409 2.03809 8.69792 1.63249 9.24023 1.34082C9.78255 1.04915 10.3887 0.90332 11.0586 0.90332C12.1341 0.90332 12.9613 1.15169 13.54 1.64844C14.1234 2.14518 14.415 2.8584 14.415 3.78809C14.415 4.18001 14.3421 4.56283 14.1963 4.93652C14.0505 5.30566 13.8226 5.69531 13.5127 6.10547C13.2074 6.51107 12.7129 7.05566 12.0293 7.73926L10.7441 9.22266H14.6611V11ZM15.96 6.13281L16.5684 1.04688H22.3857V2.83789H18.4414L18.2158 4.81348C18.3799 4.71777 18.5941 4.63346 18.8584 4.56055C19.1273 4.48763 19.3893 4.45117 19.6445 4.45117C20.6335 4.45117 21.3923 4.74512 21.9209 5.33301C22.4541 5.91634 22.7207 6.73665 22.7207 7.79395C22.7207 8.43197 22.5771 9.01074 22.29 9.53027C22.0075 10.0452 21.6087 10.4417 21.0938 10.7197C20.5788 10.9977 19.9704 11.1367 19.2686 11.1367C18.6442 11.1367 18.0586 11.0091 17.5117 10.7539C16.9648 10.4941 16.5365 10.141 16.2266 9.69434C15.9167 9.24316 15.764 8.73503 15.7686 8.16992H18.0791C18.1019 8.53451 18.2181 8.82389 18.4277 9.03809C18.6374 9.25228 18.9131 9.35938 19.2549 9.35938C20.0296 9.35938 20.417 8.78516 20.417 7.63672C20.417 6.57487 19.943 6.04395 18.9951 6.04395C18.4574 6.04395 18.0563 6.21712 17.792 6.56348L15.96 6.13281ZM31.2588 7.48633H29.96V11H27.5605V1.04688H31.4775C32.6579 1.04688 33.5807 1.30892 34.2461 1.83301C34.9115 2.3571 35.2441 3.09766 35.2441 4.05469C35.2441 4.7474 35.1029 5.32161 34.8203 5.77734C34.5423 6.23307 34.1048 6.60221 33.5078 6.88477L35.5859 10.8975V11H33.0156L31.2588 7.48633ZM29.96 5.63379H31.4775C31.9333 5.63379 32.2751 5.5153 32.5029 5.27832C32.7354 5.03678 32.8516 4.70182 32.8516 4.27344C32.8516 3.84505 32.7354 3.51009 32.5029 3.26855C32.2705 3.02246 31.9287 2.89941 31.4775 2.89941H29.96V5.63379ZM42.8662 6.78223H39.0928V9.1543H43.5498V11H36.6934V1.04688H43.5635V2.89941H39.0928V4.99805H42.8662V6.78223ZM48.3896 8.29297L50.3721 1.04688H53.0518L49.7021 11H47.0771L43.7549 1.04688H46.4141L48.3896 8.29297ZM56.3398 11H53.9473V1.04688H56.3398V11ZM64.1807 6.78223H60.4072V9.1543H64.8643V11H58.0078V1.04688H64.8779V2.89941H60.4072V4.99805H64.1807V6.78223ZM73.5527 7.28809L74.6943 1.04688H77.0732L74.9609 11H72.4727L71.1396 5.32617L69.834 11H67.3525L65.2334 1.04688H67.6191L68.7607 7.28809L70.1279 1.04688H72.165L73.5527 7.28809ZM83.1436 8.35449C83.1436 8.00358 83.0182 7.73014 82.7676 7.53418C82.5215 7.33822 82.0863 7.13542 81.4619 6.92578C80.8376 6.71615 80.3271 6.51335 79.9307 6.31738C78.641 5.68392 77.9961 4.81348 77.9961 3.70605C77.9961 3.15462 78.1556 2.66927 78.4746 2.25C78.7982 1.82617 79.2539 1.49805 79.8418 1.26562C80.4297 1.02865 81.0905 0.910156 81.8242 0.910156C82.5397 0.910156 83.18 1.03776 83.7451 1.29297C84.3148 1.54818 84.7568 1.91276 85.0713 2.38672C85.3857 2.85612 85.543 3.39388 85.543 4H83.1504C83.1504 3.5944 83.0251 3.27995 82.7744 3.05664C82.5283 2.83333 82.1934 2.72168 81.7695 2.72168C81.3411 2.72168 81.0016 2.81738 80.751 3.00879C80.5049 3.19564 80.3818 3.4349 80.3818 3.72656C80.3818 3.98177 80.5186 4.21419 80.792 4.42383C81.0654 4.62891 81.5462 4.8431 82.2344 5.06641C82.9225 5.28516 83.4876 5.52214 83.9297 5.77734C85.0052 6.39714 85.543 7.25163 85.543 8.34082C85.543 9.21126 85.2148 9.89486 84.5586 10.3916C83.9023 10.8883 83.0023 11.1367 81.8584 11.1367C81.0518 11.1367 80.3203 10.9932 79.6641 10.7061C79.0124 10.4144 78.5202 10.0179 78.1875 9.5166C77.8594 9.01074 77.6953 8.42969 77.6953 7.77344H80.1016C80.1016 8.30664 80.2383 8.70085 80.5117 8.95605C80.7897 9.20671 81.2386 9.33203 81.8584 9.33203C82.2549 9.33203 82.5671 9.24772 82.7949 9.0791C83.0273 8.90592 83.1436 8.66439 83.1436 8.35449Z" fill="#6D6D80"/>
</svg>
